# xmcd CD database file
#
# Track frame offsets:
#	150
#	21442
#	36667
#	49360
#	68102
#	94605
#	116118
#	131162
#	147368
#	163233
#
# Disc length: 2442 seconds
#
# Revision: 1
# Processed by: cddbd v1.5.2PL0 Copyright (c) Steve Scherf et al.
# Submitted via: CDValet v3.40 - Copyright (c) 1996 - 1998 Greg Leichner
#
DISCID=9d09880a
DTITLE=Robison, Bruce - His Greatest
DYEAR=1900
DGENRE=
TTITLE0=Travelin' Soldier
TTITLE1=Desperately
TTITLE2=The Good Life
TTITLE3=Angry All The Time
TTITLE4=My Brother And Me
TTITLE5=Wrapped
TTITLE6=Poor Man's Son
TTITLE7=Not Forgotten You
TTITLE8=Red Letter Day
TTITLE9=Rayne, Louisiana
EXTD=
EXTT0=
EXTT1=
EXTT2=
EXTT3=
EXTT4=
EXTT5=
EXTT6=
EXTT7=
EXTT8=
EXTT9=
PLAYORDER=
